<?xml version="1.0" standalone="no"?>
<!DOCTYPE svg PUBLIC "-//W3C//DTD SVG 20010904//EN"
 "http://www.w3.org/TR/2001/REC-SVG-20010904/DTD/svg10.dtd">
<svg version="1.0" xmlns="http://www.w3.org/2000/svg"
 width="1582.000000pt" height="1582.000000pt" viewBox="0 0 1582.000000 1582.000000"
 preserveAspectRatio="xMidYMid meet">
<metadata>
Created by potrace 1.14, written by Peter Selinger 2001-2017
</metadata>
<g transform="translate(0.000000,1582.000000) scale(0.100000,-0.100000)"
fill="#000000" stroke="none">
<path d="M3230 14184 c-1719 -315 -3126 -574 -3127 -574 -7 -1 -103 -425 -96
-428 4 -2 255 -128 558 -280 l549 -277 68 -254 c64 -241 68 -263 79 -428 7
-95 10 -175 8 -177 -2 -2 -254 -93 -559 -203 l-554 -198 -57 -215 c-31 -118
-54 -218 -50 -222 3 -4 365 -194 804 -422 439 -228 801 -416 803 -419 3 -2
-33 -91 -80 -196 l-85 -191 6 -154 6 -153 -59 -10 c-32 -6 -223 -37 -424 -69
-201 -32 -367 -59 -369 -61 -9 -6 23 -350 35 -374 7 -15 143 -233 302 -485
l289 -459 17 -137 c17 -138 15 -218 -8 -237 -6 -5 -121 -60 -256 -121 -241
-110 -246 -112 -444 -155 -111 -25 -211 -47 -222 -50 -19 -4 -24 -20 -45 -150
l-23 -145 23 -48 c13 -26 422 -796 909 -1712 l886 -1665 392 -975 392 -975
254 -118 253 -118 2880 116 c1584 63 2907 115 2940 115 49 0 213 -46 907 -255
466 -140 861 -255 877 -255 44 0 682 90 695 98 19 11 4059 3363 4090 3392 l28
28 -22 133 c-13 74 -26 138 -30 142 -4 5 -394 176 -866 381 l-859 372 -5 304
-5 304 -575 178 c-316 98 -600 185 -630 194 -37 11 -50 18 -40 24 8 4 472 150
1030 325 558 174 1019 321 1024 326 7 6 -49 490 -58 495 0 1 -325 103 -721
228 -528 167 -772 249 -915 308 -107 44 -197 82 -198 83 -2 2 -9 27 -16 57
l-12 53 90 182 91 183 45 15 c25 9 338 115 695 236 358 122 654 224 659 229 4
4 -16 85 -45 180 l-53 172 34 28 35 28 -40 7 c-22 4 -47 15 -55 25 -10 12
-447 132 -1415 390 -770 205 -1401 374 -1403 375 -2 1 32 22 75 45 l78 42 253
-8 253 -9 139 85 140 85 211 400 211 400 22 320 22 320 -54 454 -55 455 -205
225 -204 226 -228 76 c-126 42 -263 95 -305 117 l-78 41 -239 -96 -238 -95
-565 95 -566 96 -112 87 -112 88 -200 43 c-110 23 -747 159 -1415 302 -668
143 -1394 301 -1612 351 -219 49 -404 90 -410 89 -7 0 -1419 -259 -3138 -575z"/>
</g>
</svg>
